<svg xmlns="http://www.w3.org/2000/svg" viewBox="0 0 200 100" width="200" height="100">
	<style>
		tspan { white-space:pre }
	</style>
	<path id="General Simulators " fill="#000000" d="M53.06 32.08Q52.61 32.14 52.33 31.83Q52.08 31.48 52.08 31.09Q52.08 30.85 52.26 30.5Q52.43 30.15 52.82 30.18Q54.99 30.08 56.21 30.25Q57.44 30.39 58.03 30.92Q58.66 31.45 58.84 32.42Q59.01 33.37 59.08 34.88Q59.15 35.85 59.01 36.63Q58.91 37.36 58.42 38.48Q58.07 39.25 57.23 39.84Q56.42 40.41 55.3 40.79Q54.18 41.17 52.85 41.35Q51.52 41.52 50.19 41.52Q48.86 41.49 47.6 41.28Q46.38 41.03 45.43 40.65Q43.68 39.91 42.25 38.73Q40.81 37.53 39.8 35.99Q38.78 34.42 38.19 32.53Q37.63 30.6 37.63 28.47Q37.63 24.86 38.89 22.34Q40.18 19.79 42.39 18.35Q44.59 16.88 47.53 16.5Q50.51 16.11 53.83 16.81Q54.25 16.92 54.81 17.2Q55.37 17.44 55.93 17.79Q56.53 18.14 57.02 18.49Q57.54 18.84 57.86 19.12Q57.93 19.19 58.1 19.37Q58.31 19.54 58.45 19.82Q58.59 20.07 58.59 20.38Q58.59 20.7 58.35 21.01Q58.28 21.26 58.07 21.36Q57.86 21.43 57.58 21.4Q57.33 21.36 57.09 21.26Q56.84 21.12 56.7 20.94Q56.28 20.45 55.72 20.1Q55.2 19.75 54.6 19.54Q54.01 19.33 53.41 19.23Q52.85 19.09 52.36 19.09Q50.26 19.02 49 19.75Q47.78 20.49 47.78 22.1Q47.64 22.66 47.64 23.78Q47.64 24.86 47.67 26.13Q47.74 27.38 47.81 28.64Q47.92 29.87 47.92 30.64Q47.92 31.73 47.99 33.09Q48.06 34.45 48.27 35.72Q48.51 36.94 48.97 37.85Q49.42 38.73 50.26 38.83Q51.73 39.01 53.2 38.8Q54.71 38.55 55.97 37.33Q56.53 36.77 56.6 36.13Q56.7 35.51 56.67 34.59Q56.6 33.41 56.32 32.91Q56.07 32.42 55.62 32.28Q55.16 32.14 54.53 32.18Q53.9 32.22 53.06 32.08ZM74.76 21.4L70.95 21.4Q70.81 22.17 70.77 23.39Q70.77 24.58 70.81 25.91Q70.84 27.24 70.88 28.57Q70.95 29.87 70.95 30.85Q71.37 30.99 71.72 31.02Q72.07 31.02 72.42 31.02Q72.77 30.99 73.12 30.95Q73.5 30.92 73.92 30.92Q74.69 30.95 75.18 30.99Q75.71 30.99 76.02 31.13Q76.34 31.23 76.48 31.55Q76.62 31.83 76.62 32.39Q76.62 32.81 75.92 32.95Q75.25 33.09 74.34 33.13Q73.43 33.13 72.45 33.13Q71.51 33.09 70.95 33.2Q70.81 33.79 70.81 34.42Q70.81 35.02 70.81 35.64Q70.84 36.27 70.81 36.94Q70.81 37.6 70.7 38.27Q71.05 38.41 71.72 38.41Q72.42 38.41 73.22 38.38Q74.06 38.34 74.91 38.34Q75.78 38.3 76.48 38.41Q77.18 38.48 77.6 38.73Q78.05 38.97 78.05 39.49Q78.05 40.02 77.63 40.3Q77.25 40.55 76.55 40.65Q75.85 40.76 74.91 40.76Q73.99 40.72 72.98 40.72Q71.54 40.58 69.65 40.72Q67.76 40.83 66.05 40.86Q64.33 40.86 63.11 40.58Q61.92 40.27 61.85 39.25Q61.64 35.4 61.67 31.45Q61.71 27.49 61.71 23.46Q61.71 23.01 61.71 22.48Q61.71 21.92 61.74 21.43Q61.78 20.91 61.81 20.52Q61.88 20.1 61.99 19.89Q62.23 19.68 63 19.58Q63.77 19.44 64.68 19.4Q65.63 19.33 66.5 19.33Q67.38 19.3 67.9 19.3L72.98 19.3Q73.64 19.3 74.48 19.23Q75.32 19.16 76.06 19.23Q76.79 19.26 77.28 19.51Q77.77 19.75 77.77 20.42Q77.77 20.87 77.42 21.08Q77.11 21.29 76.62 21.36Q76.16 21.43 75.64 21.43Q75.11 21.4 74.76 21.4ZM93.03 32.28Q93.28 30.92 93.14 29.52Q93.03 28.09 93.03 26.09Q93.03 25.46 93 24.44Q92.96 23.43 92.96 22.45Q92.96 21.43 93.03 20.63Q93.1 19.82 93.35 19.61Q94.05 19.37 94.57 19.58Q95.1 19.75 95.1 20.21Q95.17 21.82 95.27 23.95Q95.41 26.05 95.48 28.29Q95.59 30.5 95.63 32.67Q95.66 34.84 95.59 36.55Q95.55 38.27 95.34 39.39Q95.17 40.48 94.78 40.55Q94.26 40.65 93.38 40.76Q92.51 40.83 91.6 40.83Q90.72 40.83 89.92 40.69Q89.11 40.55 88.69 40.23Q87.36 39.01 86.52 37.43Q85.72 35.85 85.05 34.17Q84.39 32.49 83.65 30.85Q82.95 29.2 81.87 27.88Q81.73 29.91 81.62 31.86Q81.55 33.79 81.52 35.47Q81.48 37.15 81.48 38.48Q81.48 39.77 81.52 40.55Q81.55 40.79 81.2 40.93Q80.89 41.07 80.47 41.07Q80.08 41.03 79.77 40.86Q79.45 40.65 79.49 40.23Q79.56 39.32 79.52 38.27Q79.49 37.22 79.49 36.41Q79.31 32.67 79.28 28.99Q79.24 25.28 79.24 21.99Q79.24 20.77 79.87 20.14Q80.5 19.47 81.41 19.23Q82.32 18.95 83.34 19.02Q84.35 19.09 85.12 19.3Q85.75 19.54 86.35 20.31Q86.98 21.05 87.54 21.99Q88.1 22.9 88.59 23.88Q89.11 24.83 89.57 25.49Q89.88 26.27 90.34 27.14Q90.79 28.02 91.28 28.92Q91.77 29.8 92.23 30.67Q92.72 31.52 93.03 32.28ZM110.78 21.4L106.96 21.4Q106.82 22.17 106.79 23.39Q106.79 24.58 106.82 25.91Q106.86 27.24 106.89 28.57Q106.96 29.87 106.96 30.85Q107.38 30.99 107.73 31.02Q108.08 31.02 108.43 31.02Q108.78 30.99 109.13 30.95Q109.52 30.92 109.94 30.92Q110.71 30.95 111.2 30.99Q111.72 30.99 112.04 31.13Q112.35 31.23 112.49 31.55Q112.63 31.83 112.63 32.39Q112.63 32.81 111.93 32.95Q111.27 33.09 110.36 33.13Q109.45 33.13 108.47 33.13Q107.52 33.09 106.96 33.2Q106.82 33.79 106.82 34.42Q106.82 35.02 106.82 35.64Q106.86 36.27 106.82 36.94Q106.82 37.6 106.72 38.27Q107.07 38.41 107.73 38.41Q108.43 38.41 109.24 38.38Q110.08 38.34 110.92 38.34Q111.79 38.3 112.49 38.41Q113.19 38.48 113.61 38.73Q114.07 38.97 114.07 39.49Q114.07 40.02 113.65 40.3Q113.26 40.55 112.56 40.65Q111.86 40.76 110.92 40.76Q110.01 40.72 108.99 40.72Q107.56 40.58 105.67 40.72Q103.78 40.83 102.06 40.86Q100.35 40.86 99.12 40.58Q97.93 40.27 97.86 39.25Q97.65 35.4 97.69 31.45Q97.72 27.49 97.72 23.46Q97.72 23.01 97.72 22.48Q97.72 21.92 97.76 21.43Q97.79 20.91 97.83 20.52Q97.9 20.1 98 19.89Q98.25 19.68 99.02 19.58Q99.79 19.44 100.7 19.4Q101.64 19.33 102.52 19.33Q103.39 19.3 103.92 19.3L108.99 19.3Q109.66 19.3 110.5 19.23Q111.34 19.16 112.07 19.23Q112.81 19.26 113.3 19.51Q113.79 19.75 113.79 20.42Q113.79 20.87 113.44 21.08Q113.13 21.29 112.63 21.36Q112.18 21.43 111.65 21.43Q111.13 21.4 110.78 21.4ZM125.51 33.69Q126.07 34.45 126.98 35.3Q127.89 36.13 128.77 36.91Q129.64 37.67 130.27 38.3Q130.91 38.94 130.87 39.28Q130.76 40.09 130.45 40.37Q130.13 40.65 129.64 40.58Q129.19 40.48 128.59 40.05Q128 39.63 127.3 39.01Q126.35 38.09 125.34 37.12Q124.32 36.1 123.41 35.44Q123.31 35.96 123.38 36.7Q123.45 37.43 123.48 38.16Q123.52 38.87 123.41 39.42Q123.34 39.98 122.89 40.16Q122.57 40.51 121.7 40.69Q120.86 40.86 119.84 40.9Q118.86 40.9 117.88 40.79Q116.94 40.69 116.38 40.44Q115.71 40.23 115.61 39.6Q115.5 38.97 115.5 38.09Q115.57 36.84 115.5 35.05Q115.47 33.23 115.36 31.27Q115.29 29.27 115.26 27.28Q115.22 25.25 115.29 23.6Q115.36 21.96 115.61 20.84Q115.85 19.72 116.38 19.47Q117.04 19.05 118.38 18.91Q119.74 18.77 121.24 18.84Q122.78 18.88 124.18 19.09Q125.62 19.26 126.39 19.47Q127.51 19.82 128.35 20.52Q129.22 21.19 129.78 22.06Q130.38 22.9 130.69 23.88Q131.01 24.83 131.11 25.7Q131.11 26.37 131.08 27.07Q131.08 27.77 130.97 28.43Q130.91 29.1 130.73 29.7Q130.56 30.25 130.2 30.67Q129.36 31.83 128.17 32.42Q127.02 33.02 125.51 33.69ZM123.13 31.86Q124.01 32.11 125.06 31.83Q126.11 31.55 126.98 30.99Q127.89 30.43 128.49 29.66Q129.08 28.89 129.08 28.12Q129.19 26.34 128.73 24.97Q128.31 23.57 127.51 22.63Q126.7 21.68 125.58 21.22Q124.5 20.73 123.27 20.73Q123.27 22.06 123.24 23.64Q123.24 25.21 123.2 26.79Q123.17 28.33 123.13 29.7Q123.13 31.02 123.13 31.86ZM149.17 35.96Q149.17 36.48 149.17 37.15Q149.17 37.78 149.14 38.41Q149.14 39.04 149.03 39.63Q148.96 40.2 148.75 40.62Q148.61 40.9 147.63 41.07Q146.65 41.21 145.5 41.21Q144.38 41.21 143.4 41.07Q142.45 40.9 142.31 40.55Q142.1 39.91 142.07 38.9Q142.07 37.85 142.07 36.73Q142.1 35.58 142.1 34.52Q142.14 33.48 142.03 32.81Q141.23 32.7 140.28 32.7Q139.38 32.67 138.39 32.67Q137.41 32.67 136.44 32.67Q135.45 32.63 134.54 32.53Q134.33 33.51 134.33 34.59Q134.33 35.64 134.37 36.7Q134.44 37.74 134.44 38.69Q134.47 39.63 134.37 40.3Q134.3 40.76 133.95 40.93Q133.63 41.07 133.25 41.03Q132.9 40.97 132.62 40.69Q132.34 40.41 132.34 39.98Q132.34 38.8 132.3 37.64Q132.27 36.48 132.34 34.73Q132.41 32.74 132.44 30.81Q132.51 28.85 132.76 27.07Q133 25.28 133.56 23.78Q134.13 22.24 135.21 21.08Q135.91 20.28 137.03 19.65Q138.15 19.02 139.72 19.02Q141.93 19.02 143.5 19.72Q145.11 20.42 146.16 21.64Q147.25 22.87 147.88 24.51Q148.51 26.13 148.79 28.02Q149.1 29.91 149.17 31.93Q149.25 33.96 149.17 35.96ZM134.58 30.57L142.38 30.57Q142.38 28.16 142.1 26.47Q141.82 24.79 141.26 23.74Q140.74 22.69 139.97 22.24Q139.2 21.75 138.22 21.75Q137.55 21.75 137.03 22.24Q136.5 22.73 136.08 23.53Q135.7 24.34 135.42 25.32Q135.14 26.3 134.93 27.28Q134.75 28.26 134.65 29.13Q134.58 30.01 134.58 30.57ZM160.34 20.45Q160.41 23.22 160.38 25.21Q160.38 27.21 160.31 28.71Q160.27 30.22 160.2 31.38Q160.13 32.49 160.09 33.62Q160.09 34.7 160.13 35.89Q160.16 37.05 160.34 38.59Q160.9 38.59 161.56 38.62Q162.26 38.62 162.79 38.8Q163.35 38.94 163.63 39.25Q163.91 39.56 163.7 40.13Q163.59 40.44 163.14 40.58Q162.69 40.72 162.09 40.76Q161.53 40.79 160.94 40.76Q160.34 40.72 159.99 40.72Q158 40.72 156.63 40.79Q155.26 40.86 154.35 40.9Q153.48 40.93 152.95 40.86Q152.43 40.76 152.15 40.48Q151.87 40.16 151.69 39.56Q151.56 38.97 151.41 37.99Q151.41 37.6 151.41 36.7Q151.41 35.78 151.38 34.59Q151.38 33.37 151.34 32Q151.34 30.6 151.31 29.31Q151.28 28.02 151.2 26.89Q151.17 25.77 151.1 25.11Q151.1 23.92 151.13 22.66Q151.17 21.4 151.41 20.45Q151.48 19.93 152.15 19.58Q152.81 19.19 153.76 19.02Q154.74 18.84 155.86 18.84Q156.98 18.84 157.93 19.02Q158.91 19.19 159.57 19.58Q160.24 19.93 160.34 20.45ZM28 59.06Q28.53 59.23 29.05 59.58Q29.61 59.94 29.96 60.35Q30.31 60.77 30.38 61.27Q30.49 61.72 30.1 62.17Q29.89 62.38 29.58 62.42Q29.3 62.42 28.98 62.35Q28.67 62.28 28.32 62.14Q28 62 27.76 61.93Q26.71 61.51 25.69 61.3Q24.82 61.13 23.84 61.09Q22.89 61.05 22.12 61.44Q21.46 61.93 21.21 62.7Q21 63.44 21.07 64.24Q21.18 65.01 21.49 65.78Q21.84 66.52 22.33 67Q24.05 68.44 25.38 69.38Q26.74 70.33 27.69 71.2Q28.67 72.05 29.26 73.03Q29.89 73.97 30.1 75.41Q30.63 77.85 29.89 79.47Q29.19 81.08 27.76 82.02Q26.32 82.93 24.4 83.25Q22.51 83.56 20.65 83.42Q18.83 83.25 17.26 82.69Q15.72 82.13 15.02 81.32Q14.53 80.76 14.14 80.2Q13.76 79.64 13.65 79.19Q13.55 78.69 13.76 78.34Q14 78 14.74 77.89Q14.98 77.85 15.16 78Q15.37 78.1 15.54 78.28Q15.72 78.41 15.86 78.63Q16 78.8 16.14 78.94Q16.7 79.85 17.96 80.38Q19.22 80.9 20.55 80.9Q21.91 80.9 22.96 80.27Q24.01 79.64 24.15 78.2Q24.15 77.26 23.73 76.59Q23.31 75.93 22.61 75.47Q21.95 74.98 21.07 74.67Q20.23 74.32 19.32 74Q18.45 73.66 17.61 73.31Q16.8 72.92 16.21 72.39Q15.16 71.45 14.35 70.58Q13.58 69.7 13.09 68.65Q12.6 67.56 12.46 66.16Q12.32 64.77 12.57 62.77Q12.88 61.33 14.39 60.25Q15.89 59.13 18.1 58.57Q20.3 58.01 22.89 58.11Q25.52 58.19 28 59.06ZM46.76 61.83Q46.97 61.83 47.08 61.96Q47.22 62.1 47.25 62.31Q47.32 62.49 47.32 62.7Q47.36 62.88 47.36 62.98Q47.25 63.44 46.9 63.61Q46.55 63.75 46.13 63.78Q45.71 63.78 45.29 63.78Q44.91 63.75 44.7 63.85Q44.49 66.72 44.59 69.81Q44.7 72.85 44.7 76.17Q44.7 77.5 44.73 78.59Q44.77 79.67 45.01 80.59Q45.68 80.59 46.03 80.62Q46.38 80.66 47.04 80.87Q47.25 81.08 47.32 81.39Q47.39 81.7 47.29 81.98Q47.18 82.27 46.9 82.47Q46.62 82.65 46.17 82.65Q44.94 82.65 43.37 82.72Q41.83 82.75 40.08 82.83Q38.33 82.86 36.44 82.9Q34.55 82.93 32.69 82.93Q32.24 82.83 32.03 82.55Q31.85 82.23 31.82 81.91Q31.82 81.56 31.89 81.28Q31.99 80.97 32.1 80.87Q32.2 80.66 32.55 80.62Q32.9 80.59 33.32 80.62Q33.78 80.66 34.23 80.69Q34.69 80.69 35.04 80.59Q35.25 76.59 35.14 72.22Q35.04 67.84 35.04 63.85Q34.48 63.75 33.85 63.72Q33.25 63.68 32.73 63.58Q32.2 63.47 31.85 63.22Q31.5 62.94 31.5 62.38Q31.61 61.96 31.89 61.79Q32.2 61.58 32.59 61.55Q32.97 61.47 33.39 61.51Q33.81 61.51 34.13 61.51L40.6 61.51Q42.18 61.51 43.79 61.55Q45.43 61.58 46.76 61.83ZM49.77 62.07Q50.19 61.41 50.96 61.33Q51.77 61.27 52.43 61.44Q53.2 61.69 54.04 62.35Q54.92 62.98 55.76 63.82Q56.6 64.63 57.33 65.43Q58.1 66.23 58.63 66.8Q59.08 66.34 59.85 65.47Q60.62 64.56 61.5 63.64Q62.41 62.73 63.28 62.03Q64.19 61.3 64.86 61.19Q65.94 61.09 66.68 61.47Q67.41 61.86 67.87 62.52Q68.32 63.19 68.5 64.03Q68.67 64.83 68.67 65.6Q68.81 67.28 68.92 69.21Q69.02 71.1 69.02 73.13Q69.06 75.16 68.99 77.22Q68.92 79.29 68.67 81.28Q68.67 81.74 68.15 82.06Q67.62 82.37 66.82 82.55Q66.05 82.72 65.1 82.75Q64.19 82.79 63.35 82.69Q62.55 82.58 61.95 82.34Q61.36 82.06 61.29 81.6Q61.08 80.94 61.04 79.64Q61.01 78.34 61.01 76.81Q61.04 75.23 61.08 73.59Q61.11 71.94 61.01 70.61Q60.94 70.3 60.69 70.44Q60.45 70.58 60.1 70.92Q59.78 71.28 59.36 71.8Q58.98 72.29 58.52 72.75Q58.1 73.2 57.68 73.55Q57.26 73.86 56.88 73.86Q56.21 73.86 55.41 73.23Q54.64 72.6 53.9 71.87Q53.2 71.1 52.61 70.54Q52.05 69.94 51.8 70.05Q51.7 70.05 51.66 70.44Q51.63 70.82 51.59 71.34Q51.56 71.87 51.56 72.43Q51.56 72.99 51.56 73.34Q51.45 75.13 51.45 76.66Q51.49 78.17 51.49 79.36Q51.52 80.55 51.49 81.35Q51.49 82.16 51.28 82.47Q51.17 82.58 50.82 82.69Q50.47 82.75 50.09 82.72Q49.74 82.65 49.46 82.41Q49.18 82.16 49.18 81.6L49.18 69.42Q49.18 68.65 49.14 67.53Q49.11 66.41 49.14 65.33Q49.18 64.2 49.32 63.3Q49.46 62.38 49.77 62.07ZM77.98 61.79Q78.37 62.84 78.4 64.52Q78.44 66.2 78.4 68.13Q78.37 70.05 78.37 72.01Q78.37 73.97 78.65 75.55Q78.93 77.12 79.63 78.13Q80.33 79.12 81.73 79.12Q82.85 78.97 83.51 77.92Q84.21 76.84 84.56 75.34Q84.91 73.8 85.02 71.97Q85.12 70.12 85.09 68.44Q85.09 66.72 85.02 65.36Q84.95 63.96 84.95 63.3Q84.95 62.73 85.05 62.28Q85.12 61.89 85.26 61.58Q85.44 61.27 85.75 61.27Q86.38 61.27 86.73 61.37Q87.08 61.47 87.26 61.72Q87.43 61.96 87.47 62.42Q87.5 62.88 87.5 63.54L87.5 69.07Q87.5 70.68 87.43 72.01Q87.36 73.31 87.19 74.46Q87.01 75.58 86.66 76.59Q86.31 77.61 85.75 78.59Q85.33 79.47 84.67 80.27Q84.04 81.08 83.06 81.67Q82.11 82.27 80.85 82.55Q79.59 82.79 77.98 82.58Q75.85 82.37 74.41 81.5Q73.01 80.59 72.1 79.22Q71.23 77.82 70.77 76.07Q70.32 74.32 70.11 72.43Q69.93 70.54 69.9 68.65Q69.9 66.72 69.9 65.01L69.9 62.73Q69.9 62.21 70.14 61.86Q70.39 61.51 70.74 61.33Q71.12 61.13 71.58 61.05Q72.07 60.95 72.49 60.95L74.76 60.95Q75.32 60.95 75.85 60.98Q76.38 60.98 76.83 61.05Q77.28 61.13 77.56 61.3Q77.88 61.47 77.98 61.79ZM98.35 62.45Q98.42 65.22 98.39 67.22Q98.39 69.21 98.32 70.72Q98.28 72.22 98.22 73.38Q98.14 74.5 98.11 75.62Q98.11 76.7 98.14 77.89Q98.18 79.05 98.35 80.59Q98.91 80.59 99.58 80.62Q100.28 80.62 100.8 80.8Q101.36 80.94 101.64 81.25Q101.92 81.56 101.72 82.13Q101.61 82.44 101.16 82.58Q100.7 82.72 100.1 82.75Q99.55 82.79 98.95 82.75Q98.35 82.72 98 82.72Q96.01 82.72 94.64 82.79Q93.28 82.86 92.37 82.9Q91.5 82.93 90.97 82.86Q90.44 82.75 90.16 82.47Q89.88 82.16 89.71 81.56Q89.57 80.97 89.43 79.99Q89.43 79.6 89.43 78.69Q89.43 77.78 89.39 76.59Q89.39 75.37 89.36 74Q89.36 72.6 89.32 71.31Q89.29 70.02 89.22 68.89Q89.19 67.78 89.11 67.11Q89.11 65.92 89.15 64.66Q89.19 63.4 89.43 62.45Q89.5 61.93 90.16 61.58Q90.83 61.19 91.77 61.02Q92.75 60.84 93.88 60.84Q94.99 60.84 95.94 61.02Q96.92 61.19 97.58 61.58Q98.25 61.93 98.35 62.45ZM119.6 77.96Q119.6 78.48 119.6 79.15Q119.6 79.78 119.56 80.41Q119.56 81.04 119.46 81.63Q119.39 82.19 119.18 82.62Q119.04 82.9 118.06 83.07Q117.08 83.21 115.92 83.21Q114.81 83.21 113.83 83.07Q112.88 82.9 112.74 82.55Q112.53 81.91 112.5 80.9Q112.5 79.85 112.5 78.73Q112.53 77.58 112.53 76.53Q112.56 75.47 112.46 74.81Q111.66 74.7 110.71 74.7Q109.8 74.67 108.82 74.67Q107.84 74.67 106.86 74.67Q105.88 74.63 104.97 74.53Q104.76 75.51 104.76 76.59Q104.76 77.64 104.8 78.69Q104.86 79.75 104.86 80.69Q104.9 81.63 104.8 82.3Q104.72 82.75 104.38 82.93Q104.06 83.07 103.67 83.03Q103.33 82.97 103.05 82.69Q102.77 82.41 102.77 81.98Q102.77 80.8 102.73 79.64Q102.69 78.48 102.77 76.73Q102.83 74.74 102.87 72.81Q102.94 70.85 103.19 69.07Q103.43 67.28 103.99 65.78Q104.55 64.24 105.63 63.08Q106.33 62.28 107.45 61.65Q108.58 61.02 110.15 61.02Q112.36 61.02 113.93 61.72Q115.54 62.42 116.59 63.64Q117.67 64.87 118.31 66.52Q118.94 68.13 119.22 70.02Q119.53 71.91 119.6 73.94Q119.67 75.97 119.6 77.96ZM105 72.57L112.81 72.57Q112.81 70.16 112.53 68.47Q112.25 66.8 111.69 65.75Q111.16 64.69 110.39 64.24Q109.63 63.75 108.64 63.75Q107.98 63.75 107.45 64.24Q106.93 64.73 106.51 65.53Q106.13 66.34 105.84 67.32Q105.56 68.3 105.36 69.28Q105.18 70.26 105.08 71.13Q105 72.01 105 72.57ZM130.59 63.75Q130.52 63.85 130.49 64.41Q130.45 64.94 130.45 65.78Q130.45 66.62 130.45 67.63Q130.49 68.65 130.52 69.7Q130.56 70.72 130.56 71.69Q130.59 72.64 130.59 73.34L130.59 80.9Q130.59 81.35 130.52 81.91Q130.45 82.47 130.03 82.65Q129.86 82.72 129.33 82.75Q128.84 82.79 128.14 82.83Q127.47 82.83 126.7 82.83Q125.94 82.83 125.23 82.83Q124.57 82.79 124.08 82.79Q123.59 82.75 123.45 82.75Q122.75 82.75 122.37 82.58Q121.98 82.41 121.98 81.6L121.98 76.07L121.98 63.92Q121.98 63.78 121.45 63.75Q120.97 63.72 120.3 63.75Q119.67 63.75 119.08 63.78Q118.52 63.78 118.41 63.75Q117.89 63.72 117.61 63.64Q117.36 63.54 117.25 63.36Q117.19 63.19 117.19 62.88Q117.22 62.52 117.22 62Q117.43 61.69 117.71 61.58Q117.99 61.44 118.27 61.44Q118.59 61.41 118.9 61.44Q119.22 61.47 119.53 61.47L133.78 61.47Q134.34 61.47 134.65 61.51Q135 61.51 135.18 61.61Q135.38 61.72 135.45 61.96Q135.53 62.21 135.53 62.63Q135.53 63.02 135.31 63.22Q135.14 63.44 134.86 63.58Q134.62 63.68 134.3 63.72Q134.02 63.75 133.78 63.75Q132.94 63.75 132.09 63.64Q131.25 63.54 130.59 63.75ZM141.58 61.55Q144.1 61.41 145.99 61.72Q147.88 62 149.25 62.84Q150.64 63.64 151.59 64.97Q152.53 66.31 153.13 68.23Q153.38 69.03 153.48 69.73Q153.62 70.4 153.62 71.2Q153.66 72.01 153.58 73.06Q153.55 74.08 153.41 75.55Q153.16 77.44 152.12 79.05Q151.06 80.66 149.45 81.78Q147.84 82.86 145.81 83.35Q143.78 83.84 141.58 83.49Q139.38 83.17 137.52 82.02Q135.7 80.87 134.44 79.05Q133.67 78.03 133.25 76.63Q132.83 75.19 132.69 73.69Q132.58 72.15 132.76 70.64Q132.97 69.1 133.46 67.84Q133.99 66.69 134.82 65.6Q135.66 64.52 136.72 63.68Q137.76 62.8 138.99 62.24Q140.25 61.65 141.58 61.55ZM148.41 65.05Q147.88 64.59 146.94 64.2Q146.03 63.82 145.12 63.68Q144.2 63.5 143.5 63.64Q142.81 63.75 142.66 64.31Q142.53 65.11 142.53 66.31Q142.53 67.46 142.56 68.79Q142.63 70.12 142.66 71.56Q142.74 72.95 142.7 74.22Q142.66 74.91 142.63 75.89Q142.59 76.88 142.7 77.82Q142.84 78.73 143.19 79.47Q143.54 80.16 144.31 80.31Q146.03 80.66 147.32 80.03Q148.65 79.36 149.53 78.06Q150.4 76.73 150.78 74.98Q151.2 73.23 151.1 71.45Q151 69.63 150.33 67.95Q149.66 66.23 148.41 65.05ZM166.19 75.69Q166.75 76.45 167.66 77.3Q168.56 78.13 169.44 78.91Q170.31 79.67 170.94 80.31Q171.57 80.94 171.54 81.28Q171.44 82.09 171.12 82.37Q170.81 82.65 170.31 82.58Q169.86 82.47 169.27 82.06Q168.67 81.63 167.97 81Q167.03 80.09 166.01 79.12Q165 78.1 164.09 77.44Q163.98 77.96 164.05 78.69Q164.12 79.43 164.16 80.16Q164.19 80.87 164.09 81.42Q164.02 81.98 163.56 82.16Q163.25 82.51 162.37 82.69Q161.53 82.86 160.52 82.9Q159.53 82.9 158.56 82.79Q157.61 82.69 157.05 82.44Q156.38 82.23 156.28 81.6Q156.18 80.97 156.18 80.09Q156.25 78.84 156.18 77.05Q156.14 75.23 156.03 73.27Q155.97 71.28 155.93 69.28Q155.9 67.25 155.97 65.6Q156.03 63.96 156.28 62.84Q156.53 61.72 157.05 61.47Q157.72 61.05 159.05 60.91Q160.41 60.77 161.92 60.84Q163.46 60.88 164.86 61.09Q166.29 61.27 167.06 61.47Q168.18 61.83 169.02 62.52Q169.9 63.19 170.46 64.06Q171.05 64.91 171.37 65.88Q171.68 66.83 171.79 67.7Q171.79 68.37 171.75 69.07Q171.75 69.77 171.65 70.44Q171.57 71.1 171.4 71.69Q171.23 72.25 170.88 72.67Q170.04 73.83 168.85 74.42Q167.69 75.02 166.19 75.69ZM163.81 73.86Q164.68 74.11 165.73 73.83Q166.78 73.55 167.66 72.99Q168.56 72.43 169.16 71.66Q169.75 70.89 169.75 70.12Q169.86 68.34 169.41 66.97Q168.99 65.57 168.18 64.63Q167.38 63.68 166.25 63.22Q165.17 62.73 163.94 62.73Q163.94 64.06 163.91 65.64Q163.91 67.22 163.88 68.79Q163.84 70.33 163.81 71.69Q163.81 73.03 163.81 73.86ZM186 62.17Q186.45 62.35 186.87 62.66Q187.29 62.94 187.54 63.3Q187.81 63.61 187.89 63.96Q187.99 64.28 187.81 64.48Q187.4 64.97 186.77 64.87Q186.17 64.73 185.68 64.48Q185.58 64.48 185.09 64.24Q184.6 63.96 183.9 63.75Q183.23 63.5 182.46 63.47Q181.73 63.44 181.1 63.89Q180.43 64.34 180.19 65.01Q179.94 65.67 179.98 66.34Q180.05 67 180.33 67.6Q180.64 68.19 181.1 68.51Q182.5 69.84 183.65 70.72Q184.81 71.59 185.65 72.33Q186.52 73.06 187.05 73.86Q187.61 74.67 187.81 75.89Q188.24 78 187.57 79.43Q186.94 80.83 185.65 81.63Q184.35 82.44 182.67 82.72Q180.99 83 179.38 82.86Q177.77 82.69 176.44 82.16Q175.15 81.6 174.59 80.8Q174.55 80.72 174.34 80.48Q174.17 80.2 173.99 79.85Q173.85 79.5 173.78 79.15Q173.75 78.77 174.03 78.48Q174.38 78.13 174.66 78.1Q174.94 78.06 175.15 78.2Q175.39 78.34 175.56 78.63Q175.74 78.87 175.85 79.12Q176.27 79.75 177.18 80.13Q178.09 80.52 179.03 80.48Q180.01 80.44 180.78 79.92Q181.59 79.39 181.73 78.2Q181.73 76.88 181.13 76.17Q180.54 75.47 179.66 75.02Q178.82 74.53 177.84 74.11Q176.9 73.69 176.13 72.95Q175.15 72.19 174.45 71.48Q173.75 70.75 173.33 69.88Q172.91 69 172.77 67.88Q172.66 66.72 172.87 65.11Q173.01 63.78 174.34 62.8Q175.67 61.79 177.6 61.33Q179.52 60.88 181.76 61.05Q184.04 61.19 186 62.17Z" />
</svg>